<svg width="450px" height="450px" xmlns="http://www.w3.org/2000/svg">
  <defs>
    <g id="s">
      <g id="c">
        <path id="t" d="M0,0v1h0.5z" transform="translate(0,-1)rotate(18)"></path>
        <path d="M0,0v1h0.5z" transform="matrix(-0.9510565162951535, 0.3090169943749474, 0.3090169943749474, 0.9510565162951535, 0, -1)"></path>
      </g>
      <g id="a">
        <g transform="matrix(0.3090169943749474, 0.9510565162951535, -0.9510565162951535, 0.3090169943749474, 0, 0)">
          <path d="M0,0v1h0.5z" transform="translate(0,-1)rotate(18)"></path>
          <path d="M0,0v1h0.5z" transform="matrix(-0.9510565162951535, 0.3090169943749474, 0.3090169943749474, 0.9510565162951535, 0, -1)"></path>
        </g>
        <g transform="matrix(-0.8090169943749475, 0.5877852522924731, -0.5877852522924731, -0.8090169943749475, 0, 0)">
          <path d="M0,0v1h0.5z" transform="translate(0,-1)rotate(18)"></path>
          <path d="M0,0v1h0.5z" transform="matrix(-0.9510565162951535, 0.3090169943749474, 0.3090169943749474, 0.9510565162951535, 0, -1)"></path>
        </g>
      </g>
      <g transform="matrix(-1, 0, 0, 1, 0, 0)">
        <g transform="matrix(0.3090169943749474, 0.9510565162951535, -0.9510565162951535, 0.3090169943749474, 0, 0)">
          <path d="M0,0v1h0.5z" transform="translate(0,-1)rotate(18)"></path>
          <path d="M0,0v1h0.5z" transform="matrix(-0.9510565162951535, 0.3090169943749474, 0.3090169943749474, 0.9510565162951535, 0, -1)"></path>
        </g>
        <g transform="matrix(-0.8090169943749475, 0.5877852522924731, -0.5877852522924731, -0.8090169943749475, 0, 0)">
          <path d="M0,0v1h0.5z" transform="translate(0,-1)rotate(18)"></path>
          <path d="M0,0v1h0.5z" transform="matrix(-0.9510565162951535, 0.3090169943749474, 0.3090169943749474, 0.9510565162951535, 0, -1)"></path>
        </g>
      </g>
    </g>
  </defs>
  <desc>European flag</desc>
  <rect fill="#039" width="450" height="450" style=""></rect>
  <g fill="#fc0" transform="matrix(30, 0, 0, 30, 222.479404, 224.105442)" style="transform-origin: -0.031338px 0.066666px;">
    <g transform="matrix(1, 0, 0, 1, 0, -6)">
      <g>
        <path d="M0,0v1h0.5z" transform="translate(0,-1)rotate(18)" style="fill: rgb(255, 255, 0);"></path>
        <path d="M0,0v1h0.5z" transform="matrix(-0.9510565162951535, 0.3090169943749474, 0.3090169943749474, 0.9510565162951535, 0, -1)" style="fill: rgb(255, 255, 0);"></path>
      </g>
      <g>
        <g transform="matrix(0.3090169943749474, 0.9510565162951535, -0.9510565162951535, 0.3090169943749474, 0, 0)">
          <path d="M0,0v1h0.5z" transform="translate(0,-1)rotate(18)" style="fill: rgb(255, 255, 0);"></path>
          <path d="M0,0v1h0.5z" transform="matrix(-0.9510565162951535, 0.3090169943749474, 0.3090169943749474, 0.9510565162951535, 0, -1)" style="fill: rgb(255, 255, 0);"></path>
        </g>
        <g transform="matrix(-0.8090169943749475, 0.5877852522924731, -0.5877852522924731, -0.8090169943749475, 0, 0)">
          <path d="M0,0v1h0.5z" transform="translate(0,-1)rotate(18)" style="fill: rgb(255, 255, 0);"></path>
          <path d="M0,0v1h0.5z" transform="matrix(-0.9510565162951535, 0.3090169943749474, 0.3090169943749474, 0.9510565162951535, 0, -1)" style="fill: rgb(255, 255, 0);"></path>
        </g>
      </g>
      <g transform="matrix(-1, 0, 0, 1, 0, 0)">
        <g transform="matrix(0.3090169943749474, 0.9510565162951535, -0.9510565162951535, 0.3090169943749474, 0, 0)">
          <path d="M0,0v1h0.5z" transform="translate(0,-1)rotate(18)" style="fill: rgb(255, 255, 0);"></path>
          <path d="M0,0v1h0.5z" transform="matrix(-0.9510565162951535, 0.3090169943749474, 0.3090169943749474, 0.9510565162951535, 0, -1)" style="fill: rgb(255, 255, 0);"></path>
        </g>
        <g transform="matrix(-0.8090169943749475, 0.5877852522924731, -0.5877852522924731, -0.8090169943749475, 0, 0)">
          <path d="M0,0v1h0.5z" transform="translate(0,-1)rotate(18)" style="fill: rgb(255, 255, 0);"></path>
          <path d="M0,0v1h0.5z" transform="matrix(-0.9510565162951535, 0.3090169943749474, 0.3090169943749474, 0.9510565162951535, 0, -1)" style="fill: rgb(255, 255, 0);"></path>
        </g>
      </g>
    </g>
    <g transform="matrix(1, 0, 0, 1, 0, 6)">
      <g>
        <path d="M0,0v1h0.5z" transform="translate(0,-1)rotate(18)" style="fill: rgb(255, 255, 0);"></path>
        <path d="M0,0v1h0.5z" transform="matrix(-0.9510565162951535, 0.3090169943749474, 0.3090169943749474, 0.9510565162951535, 0, -1)" style="fill: rgb(255, 255, 0);"></path>
      </g>
      <g>
        <g transform="matrix(0.3090169943749474, 0.9510565162951535, -0.9510565162951535, 0.3090169943749474, 0, 0)">
          <path d="M0,0v1h0.5z" transform="translate(0,-1)rotate(18)" style="fill: rgb(255, 255, 0);"></path>
          <path d="M0,0v1h0.5z" transform="matrix(-0.9510565162951535, 0.3090169943749474, 0.3090169943749474, 0.9510565162951535, 0, -1)" style="fill: rgb(255, 255, 0);"></path>
        </g>
        <g transform="matrix(-0.8090169943749475, 0.5877852522924731, -0.5877852522924731, -0.8090169943749475, 0, 0)">
          <path d="M0,0v1h0.5z" transform="translate(0,-1)rotate(18)" style="fill: rgb(255, 255, 0);"></path>
          <path d="M0,0v1h0.5z" transform="matrix(-0.9510565162951535, 0.3090169943749474, 0.3090169943749474, 0.9510565162951535, 0, -1)" style="fill: rgb(255, 255, 0);"></path>
        </g>
      </g>
      <g transform="matrix(-1, 0, 0, 1, 0, 0)">
        <g transform="matrix(0.3090169943749474, 0.9510565162951535, -0.9510565162951535, 0.3090169943749474, 0, 0)">
          <path d="M0,0v1h0.5z" transform="translate(0,-1)rotate(18)" style="fill: rgb(255, 255, 0);"></path>
          <path d="M0,0v1h0.5z" transform="matrix(-0.9510565162951535, 0.3090169943749474, 0.3090169943749474, 0.9510565162951535, 0, -1)" style="fill: rgb(255, 255, 0);"></path>
        </g>
        <g transform="matrix(-0.8090169943749475, 0.5877852522924731, -0.5877852522924731, -0.8090169943749475, 0, 0)">
          <path d="M0,0v1h0.5z" transform="translate(0,-1)rotate(18)" style="fill: rgb(255, 255, 0);"></path>
          <path d="M0,0v1h0.5z" transform="matrix(-0.9510565162951535, 0.3090169943749474, 0.3090169943749474, 0.9510565162951535, 0, -1)" style="fill: rgb(255, 255, 0);"></path>
        </g>
      </g>
    </g>
    <g id="l">
      <g transform="matrix(1, 0, 0, 1, -6, 0)">
        <g>
          <path d="M0,0v1h0.5z" transform="translate(0,-1)rotate(18)" style="fill: rgb(255, 255, 0);"></path>
          <path d="M0,0v1h0.5z" transform="matrix(-0.9510565162951535, 0.3090169943749474, 0.3090169943749474, 0.9510565162951535, 0, -1)" style="fill: rgb(255, 255, 0);"></path>
        </g>
        <g>
          <g transform="matrix(0.3090169943749474, 0.9510565162951535, -0.9510565162951535, 0.3090169943749474, 0, 0)">
            <path d="M0,0v1h0.5z" transform="translate(0,-1)rotate(18)" style="fill: rgb(255, 255, 0);"></path>
            <path d="M0,0v1h0.5z" transform="matrix(-0.9510565162951535, 0.3090169943749474, 0.3090169943749474, 0.9510565162951535, 0, -1)" style="fill: rgb(255, 255, 0);"></path>
          </g>
          <g transform="matrix(-0.8090169943749475, 0.5877852522924731, -0.5877852522924731, -0.8090169943749475, 0, 0)">
            <path d="M0,0v1h0.5z" transform="translate(0,-1)rotate(18)" style="fill: rgb(255, 255, 0);"></path>
            <path d="M0,0v1h0.5z" transform="matrix(-0.9510565162951535, 0.3090169943749474, 0.3090169943749474, 0.9510565162951535, 0, -1)" style="fill: rgb(255, 255, 0);"></path>
          </g>
        </g>
        <g transform="matrix(-1, 0, 0, 1, 0, 0)">
          <g transform="matrix(0.3090169943749474, 0.9510565162951535, -0.9510565162951535, 0.3090169943749474, 0, 0)">
            <path d="M0,0v1h0.5z" transform="translate(0,-1)rotate(18)" style="fill: rgb(255, 255, 0);"></path>
            <path d="M0,0v1h0.5z" transform="matrix(-0.9510565162951535, 0.3090169943749474, 0.3090169943749474, 0.9510565162951535, 0, -1)" style="fill: rgb(255, 255, 0);"></path>
          </g>
          <g transform="matrix(-0.8090169943749475, 0.5877852522924731, -0.5877852522924731, -0.8090169943749475, 0, 0)">
            <path d="M0,0v1h0.5z" transform="translate(0,-1)rotate(18)" style="fill: rgb(255, 255, 0);"></path>
            <path d="M0,0v1h0.5z" transform="matrix(-0.9510565162951535, 0.3090169943749474, 0.3090169943749474, 0.9510565162951535, 0, -1)" style="fill: rgb(255, 255, 0);"></path>
          </g>
        </g>
      </g>
      <g transform="matrix(-0.8090169943749475, -0.5877852522924731, 0.5877852522924731, -0.8090169943749475, -2.9999999999999996, -5.196152422706632)">
        <g>
          <path d="M0,0v1h0.5z" transform="translate(0,-1)rotate(18)" style="fill: rgb(255, 255, 0);"></path>
          <path d="M0,0v1h0.5z" transform="matrix(-0.9510565162951535, 0.3090169943749474, 0.3090169943749474, 0.9510565162951535, 0, -1)" style="fill: rgb(255, 255, 0);"></path>
        </g>
        <g>
          <g transform="matrix(0.3090169943749474, 0.9510565162951535, -0.9510565162951535, 0.3090169943749474, 0, 0)">
            <path d="M0,0v1h0.5z" transform="translate(0,-1)rotate(18)" style="fill: rgb(255, 255, 0);"></path>
            <path d="M0,0v1h0.5z" transform="matrix(-0.9510565162951535, 0.3090169943749474, 0.3090169943749474, 0.9510565162951535, 0, -1)" style="fill: rgb(255, 255, 0);"></path>
          </g>
          <g transform="matrix(-0.8090169943749475, 0.5877852522924731, -0.5877852522924731, -0.8090169943749475, 0, 0)">
            <path d="M0,0v1h0.5z" transform="translate(0,-1)rotate(18)" style="fill: rgb(255, 255, 0);"></path>
            <path d="M0,0v1h0.5z" transform="matrix(-0.9510565162951535, 0.3090169943749474, 0.3090169943749474, 0.9510565162951535, 0, -1)" style="fill: rgb(255, 255, 0);"></path>
          </g>
        </g>
        <g transform="matrix(-1, 0, 0, 1, 0, 0)">
          <g transform="matrix(0.3090169943749474, 0.9510565162951535, -0.9510565162951535, 0.3090169943749474, 0, 0)">
            <path d="M0,0v1h0.5z" transform="translate(0,-1)rotate(18)" style="fill: rgb(255, 255, 0);"></path>
            <path d="M0,0v1h0.5z" transform="matrix(-0.9510565162951535, 0.3090169943749474, 0.3090169943749474, 0.9510565162951535, 0, -1)" style="fill: rgb(255, 255, 0);"></path>
          </g>
          <g transform="matrix(-0.8090169943749475, 0.5877852522924731, -0.5877852522924731, -0.8090169943749475, 0, 0)">
            <path d="M0,0v1h0.5z" transform="translate(0,-1)rotate(18)" style="fill: rgb(255, 255, 0);"></path>
            <path d="M0,0v1h0.5z" transform="matrix(-0.9510565162951535, 0.3090169943749474, 0.3090169943749474, 0.9510565162951535, 0, -1)" style="fill: rgb(255, 255, 0);"></path>
          </g>
        </g>
      </g>
      <g transform="matrix(-0.8090169943749475, 0.5877852522924731, -0.5877852522924731, -0.8090169943749475, -5.196152422706632, -2.9999999999999996)">
        <g>
          <path d="M0,0v1h0.5z" transform="translate(0,-1)rotate(18)" style="fill: rgb(255, 255, 0);"></path>
          <path d="M0,0v1h0.5z" transform="matrix(-0.9510565162951535, 0.3090169943749474, 0.3090169943749474, 0.9510565162951535, 0, -1)" style="fill: rgb(255, 255, 0);"></path>
        </g>
        <g>
          <g transform="matrix(0.3090169943749474, 0.9510565162951535, -0.9510565162951535, 0.3090169943749474, 0, 0)">
            <path d="M0,0v1h0.5z" transform="translate(0,-1)rotate(18)" style="fill: rgb(255, 255, 0);"></path>
            <path d="M0,0v1h0.5z" transform="matrix(-0.9510565162951535, 0.3090169943749474, 0.3090169943749474, 0.9510565162951535, 0, -1)" style="fill: rgb(255, 255, 0);"></path>
          </g>
          <g transform="matrix(-0.8090169943749475, 0.5877852522924731, -0.5877852522924731, -0.8090169943749475, 0, 0)">
            <path d="M0,0v1h0.5z" transform="translate(0,-1)rotate(18)" style="fill: rgb(255, 255, 0);"></path>
            <path d="M0,0v1h0.5z" transform="matrix(-0.9510565162951535, 0.3090169943749474, 0.3090169943749474, 0.9510565162951535, 0, -1)" style="fill: rgb(255, 255, 0);"></path>
          </g>
        </g>
        <g transform="matrix(-1, 0, 0, 1, 0, 0)">
          <g transform="matrix(0.3090169943749474, 0.9510565162951535, -0.9510565162951535, 0.3090169943749474, 0, 0)">
            <path d="M0,0v1h0.5z" transform="translate(0,-1)rotate(18)" style="fill: rgb(255, 255, 0);"></path>
            <path d="M0,0v1h0.5z" transform="matrix(-0.9510565162951535, 0.3090169943749474, 0.3090169943749474, 0.9510565162951535, 0, -1)" style="fill: rgb(255, 255, 0);"></path>
          </g>
          <g transform="matrix(-0.8090169943749475, 0.5877852522924731, -0.5877852522924731, -0.8090169943749475, 0, 0)">
            <path d="M0,0v1h0.5z" transform="translate(0,-1)rotate(18)" style="fill: rgb(255, 255, 0);"></path>
            <path d="M0,0v1h0.5z" transform="matrix(-0.9510565162951535, 0.3090169943749474, 0.3090169943749474, 0.9510565162951535, 0, -1)" style="fill: rgb(255, 255, 0);"></path>
          </g>
        </g>
      </g>
      <g transform="matrix(0.30901699437494734, 0.9510565162951538, -0.9510565162951538, 0.30901699437494734, -5.196152422706632, 2.9999999999999996)">
        <g>
          <path d="M0,0v1h0.5z" transform="translate(0,-1)rotate(18)" style="fill: rgb(255, 255, 0);"></path>
          <path d="M0,0v1h0.5z" transform="matrix(-0.9510565162951535, 0.3090169943749474, 0.3090169943749474, 0.9510565162951535, 0, -1)" style="fill: rgb(255, 255, 0);"></path>
        </g>
        <g>
          <g transform="matrix(0.3090169943749474, 0.9510565162951535, -0.9510565162951535, 0.3090169943749474, 0, 0)">
            <path d="M0,0v1h0.5z" transform="translate(0,-1)rotate(18)" style="fill: rgb(255, 255, 0);"></path>
            <path d="M0,0v1h0.5z" transform="matrix(-0.9510565162951535, 0.3090169943749474, 0.3090169943749474, 0.9510565162951535, 0, -1)" style="fill: rgb(255, 255, 0);"></path>
          </g>
          <g transform="matrix(-0.8090169943749475, 0.5877852522924731, -0.5877852522924731, -0.8090169943749475, 0, 0)">
            <path d="M0,0v1h0.5z" transform="translate(0,-1)rotate(18)" style="fill: rgb(255, 255, 0);"></path>
            <path d="M0,0v1h0.5z" transform="matrix(-0.9510565162951535, 0.3090169943749474, 0.3090169943749474, 0.9510565162951535, 0, -1)" style="fill: rgb(255, 255, 0);"></path>
          </g>
        </g>
        <g transform="matrix(-1, 0, 0, 1, 0, 0)">
          <g transform="matrix(0.3090169943749474, 0.9510565162951535, -0.9510565162951535, 0.3090169943749474, 0, 0)">
            <path d="M0,0v1h0.5z" transform="translate(0,-1)rotate(18)" style="fill: rgb(255, 255, 0);"></path>
            <path d="M0,0v1h0.5z" transform="matrix(-0.9510565162951535, 0.3090169943749474, 0.3090169943749474, 0.9510565162951535, 0, -1)" style="fill: rgb(255, 255, 0);"></path>
          </g>
          <g transform="matrix(-0.8090169943749475, 0.5877852522924731, -0.5877852522924731, -0.8090169943749475, 0, 0)">
            <path d="M0,0v1h0.5z" transform="translate(0,-1)rotate(18)" style="fill: rgb(255, 255, 0);"></path>
            <path d="M0,0v1h0.5z" transform="matrix(-0.9510565162951535, 0.3090169943749474, 0.3090169943749474, 0.9510565162951535, 0, -1)" style="fill: rgb(255, 255, 0);"></path>
          </g>
        </g>
      </g>
      <g transform="matrix(0.3090169943749475, 0.9510565162951536, -0.9510565162951536, 0.3090169943749475, -2.9999999999999996, 5.196152422706632)">
        <g>
          <path d="M0,0v1h0.5z" transform="translate(0,-1)rotate(18)" style="fill: rgb(255, 255, 0);"></path>
          <path d="M0,0v1h0.5z" transform="matrix(-0.9510565162951535, 0.3090169943749474, 0.3090169943749474, 0.9510565162951535, 0, -1)" style="fill: rgb(255, 255, 0);"></path>
        </g>
        <g>
          <g transform="matrix(0.3090169943749474, 0.9510565162951535, -0.9510565162951535, 0.3090169943749474, 0, 0)">
            <path d="M0,0v1h0.5z" transform="translate(0,-1)rotate(18)" style="fill: rgb(255, 255, 0);"></path>
            <path d="M0,0v1h0.5z" transform="matrix(-0.9510565162951535, 0.3090169943749474, 0.3090169943749474, 0.9510565162951535, 0, -1)" style="fill: rgb(255, 255, 0);"></path>
          </g>
          <g transform="matrix(-0.8090169943749475, 0.5877852522924731, -0.5877852522924731, -0.8090169943749475, 0, 0)">
            <path d="M0,0v1h0.5z" transform="translate(0,-1)rotate(18)" style="fill: rgb(255, 255, 0);"></path>
            <path d="M0,0v1h0.5z" transform="matrix(-0.9510565162951535, 0.3090169943749474, 0.3090169943749474, 0.9510565162951535, 0, -1)" style="fill: rgb(255, 255, 0);"></path>
          </g>
        </g>
        <g transform="matrix(-1, 0, 0, 1, 0, 0)">
          <g transform="matrix(0.3090169943749474, 0.9510565162951535, -0.9510565162951535, 0.3090169943749474, 0, 0)">
            <path d="M0,0v1h0.5z" transform="translate(0,-1)rotate(18)" style="fill: rgb(255, 255, 0);"></path>
            <path d="M0,0v1h0.5z" transform="matrix(-0.9510565162951535, 0.3090169943749474, 0.3090169943749474, 0.9510565162951535, 0, -1)" style="fill: rgb(255, 255, 0);"></path>
          </g>
          <g transform="matrix(-0.8090169943749475, 0.5877852522924731, -0.5877852522924731, -0.8090169943749475, 0, 0)">
            <path d="M0,0v1h0.5z" transform="translate(0,-1)rotate(18)" style="fill: rgb(255, 255, 0);"></path>
            <path d="M0,0v1h0.5z" transform="matrix(-0.9510565162951535, 0.3090169943749474, 0.3090169943749474, 0.9510565162951535, 0, -1)" style="fill: rgb(255, 255, 0);"></path>
          </g>
        </g>
      </g>
    </g>
    <g transform="matrix(-1, 0, 0, 1, 0, 0)">
      <g transform="matrix(1, 0, 0, 1, -6, 0)">
        <g>
          <path d="M0,0v1h0.5z" transform="translate(0,-1)rotate(18)" style="fill: rgb(255, 255, 0);"></path>
          <path d="M0,0v1h0.5z" transform="matrix(-0.9510565162951535, 0.3090169943749474, 0.3090169943749474, 0.9510565162951535, 0, -1)" style="fill: rgb(255, 255, 0);"></path>
        </g>
        <g>
          <g transform="matrix(0.3090169943749474, 0.9510565162951535, -0.9510565162951535, 0.3090169943749474, 0, 0)">
            <path d="M0,0v1h0.5z" transform="translate(0,-1)rotate(18)" style="fill: rgb(255, 255, 0);"></path>
            <path d="M0,0v1h0.5z" transform="matrix(-0.9510565162951535, 0.3090169943749474, 0.3090169943749474, 0.9510565162951535, 0, -1)" style="fill: rgb(255, 255, 0);"></path>
          </g>
          <g transform="matrix(-0.8090169943749475, 0.5877852522924731, -0.5877852522924731, -0.8090169943749475, 0, 0)">
            <path d="M0,0v1h0.5z" transform="translate(0,-1)rotate(18)" style="fill: rgb(255, 255, 0);"></path>
            <path d="M0,0v1h0.5z" transform="matrix(-0.9510565162951535, 0.3090169943749474, 0.3090169943749474, 0.9510565162951535, 0, -1)" style="fill: rgb(255, 255, 0);"></path>
          </g>
        </g>
        <g transform="matrix(-1, 0, 0, 1, 0, 0)">
          <g transform="matrix(0.3090169943749474, 0.9510565162951535, -0.9510565162951535, 0.3090169943749474, 0, 0)">
            <path d="M0,0v1h0.5z" transform="translate(0,-1)rotate(18)" style="fill: rgb(255, 255, 0);"></path>
            <path d="M0,0v1h0.5z" transform="matrix(-0.9510565162951535, 0.3090169943749474, 0.3090169943749474, 0.9510565162951535, 0, -1)" style="fill: rgb(255, 255, 0);"></path>
          </g>
          <g transform="matrix(-0.8090169943749475, 0.5877852522924731, -0.5877852522924731, -0.8090169943749475, 0, 0)">
            <path d="M0,0v1h0.5z" transform="translate(0,-1)rotate(18)" style="fill: rgb(255, 255, 0);"></path>
            <path d="M0,0v1h0.5z" transform="matrix(-0.9510565162951535, 0.3090169943749474, 0.3090169943749474, 0.9510565162951535, 0, -1)" style="fill: rgb(255, 255, 0);"></path>
          </g>
        </g>
      </g>
      <g transform="matrix(-0.8090169943749475, -0.5877852522924731, 0.5877852522924731, -0.8090169943749475, -2.9999999999999996, -5.196152422706632)">
        <g>
          <path d="M0,0v1h0.5z" transform="translate(0,-1)rotate(18)" style="fill: rgb(255, 255, 0);"></path>
          <path d="M0,0v1h0.5z" transform="matrix(-0.9510565162951535, 0.3090169943749474, 0.3090169943749474, 0.9510565162951535, 0, -1)" style="fill: rgb(255, 255, 0);"></path>
        </g>
        <g>
          <g transform="matrix(0.3090169943749474, 0.9510565162951535, -0.9510565162951535, 0.3090169943749474, 0, 0)">
            <path d="M0,0v1h0.5z" transform="translate(0,-1)rotate(18)" style="fill: rgb(255, 255, 0);"></path>
            <path d="M0,0v1h0.5z" transform="matrix(-0.9510565162951535, 0.3090169943749474, 0.3090169943749474, 0.9510565162951535, 0, -1)" style="fill: rgb(255, 255, 0);"></path>
          </g>
          <g transform="matrix(-0.8090169943749475, 0.5877852522924731, -0.5877852522924731, -0.8090169943749475, 0, 0)">
            <path d="M0,0v1h0.5z" transform="translate(0,-1)rotate(18)" style="fill: rgb(255, 255, 0);"></path>
            <path d="M0,0v1h0.5z" transform="matrix(-0.9510565162951535, 0.3090169943749474, 0.3090169943749474, 0.9510565162951535, 0, -1)" style="fill: rgb(255, 255, 0);"></path>
          </g>
        </g>
        <g transform="matrix(-1, 0, 0, 1, 0, 0)">
          <g transform="matrix(0.3090169943749474, 0.9510565162951535, -0.9510565162951535, 0.3090169943749474, 0, 0)">
            <path d="M0,0v1h0.5z" transform="translate(0,-1)rotate(18)" style="fill: rgb(255, 255, 0);"></path>
            <path d="M0,0v1h0.5z" transform="matrix(-0.9510565162951535, 0.3090169943749474, 0.3090169943749474, 0.9510565162951535, 0, -1)" style="fill: rgb(255, 255, 0);"></path>
          </g>
          <g transform="matrix(-0.8090169943749475, 0.5877852522924731, -0.5877852522924731, -0.8090169943749475, 0, 0)">
            <path d="M0,0v1h0.5z" transform="translate(0,-1)rotate(18)" style="fill: rgb(255, 255, 0);"></path>
            <path d="M0,0v1h0.5z" transform="matrix(-0.9510565162951535, 0.3090169943749474, 0.3090169943749474, 0.9510565162951535, 0, -1)" style="fill: rgb(255, 255, 0);"></path>
          </g>
        </g>
      </g>
      <g transform="matrix(-0.8090169943749475, 0.5877852522924731, -0.5877852522924731, -0.8090169943749475, -5.196152422706632, -2.9999999999999996)">
        <g>
          <path d="M0,0v1h0.5z" transform="translate(0,-1)rotate(18)" style="fill: rgb(255, 255, 0);"></path>
          <path d="M0,0v1h0.5z" transform="matrix(-0.9510565162951535, 0.3090169943749474, 0.3090169943749474, 0.9510565162951535, 0, -1)" style="fill: rgb(255, 255, 0);"></path>
        </g>
        <g>
          <g transform="matrix(0.3090169943749474, 0.9510565162951535, -0.9510565162951535, 0.3090169943749474, 0, 0)">
            <path d="M0,0v1h0.5z" transform="translate(0,-1)rotate(18)" style="fill: rgb(255, 255, 0);"></path>
            <path d="M0,0v1h0.5z" transform="matrix(-0.9510565162951535, 0.3090169943749474, 0.3090169943749474, 0.9510565162951535, 0, -1)" style="fill: rgb(255, 255, 0);"></path>
          </g>
          <g transform="matrix(-0.8090169943749475, 0.5877852522924731, -0.5877852522924731, -0.8090169943749475, 0, 0)">
            <path d="M0,0v1h0.5z" transform="translate(0,-1)rotate(18)" style="fill: rgb(255, 255, 0);"></path>
            <path d="M0,0v1h0.5z" transform="matrix(-0.9510565162951535, 0.3090169943749474, 0.3090169943749474, 0.9510565162951535, 0, -1)" style="fill: rgb(255, 255, 0);"></path>
          </g>
        </g>
        <g transform="matrix(-1, 0, 0, 1, 0, 0)">
          <g transform="matrix(0.3090169943749474, 0.9510565162951535, -0.9510565162951535, 0.3090169943749474, 0, 0)">
            <path d="M0,0v1h0.5z" transform="translate(0,-1)rotate(18)" style="fill: rgb(255, 255, 0);"></path>
            <path d="M0,0v1h0.5z" transform="matrix(-0.9510565162951535, 0.3090169943749474, 0.3090169943749474, 0.9510565162951535, 0, -1)" style="fill: rgb(255, 255, 0);"></path>
          </g>
          <g transform="matrix(-0.8090169943749475, 0.5877852522924731, -0.5877852522924731, -0.8090169943749475, 0, 0)">
            <path d="M0,0v1h0.5z" transform="translate(0,-1)rotate(18)" style="fill: rgb(255, 255, 0);"></path>
            <path d="M0,0v1h0.5z" transform="matrix(-0.9510565162951535, 0.3090169943749474, 0.3090169943749474, 0.9510565162951535, 0, -1)" style="fill: rgb(255, 255, 0);"></path>
          </g>
        </g>
      </g>
      <g transform="matrix(0.30901699437494734, 0.9510565162951538, -0.9510565162951538, 0.30901699437494734, -5.196152422706632, 2.9999999999999996)">
        <g>
          <path d="M0,0v1h0.5z" transform="translate(0,-1)rotate(18)" style="fill: rgb(255, 255, 0);"></path>
          <path d="M0,0v1h0.5z" transform="matrix(-0.9510565162951535, 0.3090169943749474, 0.3090169943749474, 0.9510565162951535, 0, -1)" style="fill: rgb(255, 255, 0);"></path>
        </g>
        <g>
          <g transform="matrix(0.3090169943749474, 0.9510565162951535, -0.9510565162951535, 0.3090169943749474, 0, 0)">
            <path d="M0,0v1h0.5z" transform="translate(0,-1)rotate(18)" style="fill: rgb(255, 255, 0);"></path>
            <path d="M0,0v1h0.5z" transform="matrix(-0.9510565162951535, 0.3090169943749474, 0.3090169943749474, 0.9510565162951535, 0, -1)" style="fill: rgb(255, 255, 0);"></path>
          </g>
          <g transform="matrix(-0.8090169943749475, 0.5877852522924731, -0.5877852522924731, -0.8090169943749475, 0, 0)">
            <path d="M0,0v1h0.5z" transform="translate(0,-1)rotate(18)" style="fill: rgb(255, 255, 0);"></path>
            <path d="M0,0v1h0.5z" transform="matrix(-0.9510565162951535, 0.3090169943749474, 0.3090169943749474, 0.9510565162951535, 0, -1)" style="fill: rgb(255, 255, 0);"></path>
          </g>
        </g>
        <g transform="matrix(-1, 0, 0, 1, 0, 0)">
          <g transform="matrix(0.3090169943749474, 0.9510565162951535, -0.9510565162951535, 0.3090169943749474, 0, 0)">
            <path d="M0,0v1h0.5z" transform="translate(0,-1)rotate(18)" style="fill: rgb(255, 255, 0);"></path>
            <path d="M0,0v1h0.5z" transform="matrix(-0.9510565162951535, 0.3090169943749474, 0.3090169943749474, 0.9510565162951535, 0, -1)" style="fill: rgb(255, 255, 0);"></path>
          </g>
          <g transform="matrix(-0.8090169943749475, 0.5877852522924731, -0.5877852522924731, -0.8090169943749475, 0, 0)">
            <path d="M0,0v1h0.5z" transform="translate(0,-1)rotate(18)" style="fill: rgb(255, 255, 0);"></path>
            <path d="M0,0v1h0.5z" transform="matrix(-0.9510565162951535, 0.3090169943749474, 0.3090169943749474, 0.9510565162951535, 0, -1)" style="fill: rgb(255, 255, 0);"></path>
          </g>
        </g>
      </g>
      <g transform="matrix(0.3090169943749475, 0.9510565162951536, -0.9510565162951536, 0.3090169943749475, -2.9999999999999996, 5.196152422706632)">
        <g>
          <path d="M0,0v1h0.5z" transform="translate(0,-1)rotate(18)" style="fill: rgb(255, 255, 0);"></path>
          <path d="M0,0v1h0.5z" transform="matrix(-0.9510565162951535, 0.3090169943749474, 0.3090169943749474, 0.9510565162951535, 0, -1)" style="fill: rgb(255, 255, 0);"></path>
        </g>
        <g>
          <g transform="matrix(0.3090169943749474, 0.9510565162951535, -0.9510565162951535, 0.3090169943749474, 0, 0)">
            <path d="M0,0v1h0.5z" transform="translate(0,-1)rotate(18)" style="fill: rgb(255, 255, 0);"></path>
            <path d="M0,0v1h0.5z" transform="matrix(-0.9510565162951535, 0.3090169943749474, 0.3090169943749474, 0.9510565162951535, 0, -1)" style="fill: rgb(255, 255, 0);"></path>
          </g>
          <g transform="matrix(-0.8090169943749475, 0.5877852522924731, -0.5877852522924731, -0.8090169943749475, 0, 0)">
            <path d="M0,0v1h0.5z" transform="translate(0,-1)rotate(18)" style="fill: rgb(255, 255, 0);"></path>
            <path d="M0,0v1h0.5z" transform="matrix(-0.9510565162951535, 0.3090169943749474, 0.3090169943749474, 0.9510565162951535, 0, -1)" style="fill: rgb(255, 255, 0);"></path>
          </g>
        </g>
        <g transform="matrix(-1, 0, 0, 1, 0, 0)">
          <g transform="matrix(0.3090169943749474, 0.9510565162951535, -0.9510565162951535, 0.3090169943749474, 0, 0)">
            <path d="M0,0v1h0.5z" transform="translate(0,-1)rotate(18)" style="fill: rgb(255, 255, 0);"></path>
            <path d="M0,0v1h0.5z" transform="matrix(-0.9510565162951535, 0.3090169943749474, 0.3090169943749474, 0.9510565162951535, 0, -1)" style="fill: rgb(255, 255, 0);"></path>
          </g>
          <g transform="matrix(-0.8090169943749475, 0.5877852522924731, -0.5877852522924731, -0.8090169943749475, 0, 0)">
            <path d="M0,0v1h0.5z" transform="translate(0,-1)rotate(18)" style="fill: rgb(255, 255, 0);"></path>
            <path d="M0,0v1h0.5z" transform="matrix(-0.9510565162951535, 0.3090169943749474, 0.3090169943749474, 0.9510565162951535, 0, -1)" style="fill: rgb(255, 255, 0);"></path>
          </g>
        </g>
      </g>
    </g>
  </g>
  <path d="M 111.268 190.282 L 292.624 190.282 L 285.235 208.059 L 103.877 208.059 L 111.268 190.282 Z M 111.268 225.835 L 277.845 225.835 L 270.454 243.613 L 103.877 243.613 L 111.268 225.835 Z M 305.29 159.815 C 261.309 107.401 177.081 122.251 153.679 186.548 C 130.278 250.843 185.253 316.362 252.636 304.479 C 273.216 300.851 291.858 290.088 305.29 274.08 L 305.29 299.047 C 242.091 351.461 145.85 315.805 132.057 234.865 C 118.266 153.924 197.265 88.407 274.257 116.931 C 288.755 122.303 301.909 130.76 312.813 141.718 L 305.29 159.815 Z" fill="#ff0" style=""></path>
</svg>
